<svg width="104.83072893152536" height="104.83072893152536" viewBox="0 0 84.7263601091173 84.7263601091173">
    <g transform="matrix(1.3888888888888888,0,0,1.3888888888888888,0,0.0020347535610198975)">
        <title xmlns="http://www.w3.org/2000/svg">LearnHub</title>
        <desc xmlns="http://www.w3.org/2000/svg">Welcome to LearnHub!</desc>
        <g xmlns="http://www.w3.org/2000/svg" stroke="none" stroke-width="1" fill="#fcfc" fill-rule="evenodd">
            <g transform="translate(0.000000, -1.000000)" fill="#e3df12" fill-rule="nonzero">
                <path d="M57,14 L56,14 L56,13 C56,11.3431458 54.6568542,10 53,10 L37.932,10 C38.0077803,9.40288851 38.0175057,8.79924277 37.961,8.2 C37.5857116,4.45973375 34.6569968,1.48524481 30.923,1.052 C28.6555137,0.788629949 26.3835151,1.50645378 24.678942,3.02477134 C22.9743688,4.54308889 21.9995937,6.71726968 22,9 C22.0022389,9.33447532 22.0256189,9.66847464 22.07,10 L7,10 C5.34314575,10 4,11.3431458 4,13 L4,14 L3,14 C1.34314575,14 2.02906125e-16,15.3431458 0,17 L0,55 C2.02906125e-16,56.6568542 1.34314575,58 3,58 L24.812,58 C25.166484,58.0015722 25.4931891,58.192182 25.669,58.5 C26.5619354,60.0478578 28.2130481,61.0015127 30,61.0015127 C31.7869519,61.0015127 33.4380646,60.0478578 34.331,58.5 C34.5068109,58.192182 34.833516,58.0015722 35.188,58 L57,58 C58.6568542,58 60,56.6568542 60,55 L60,17 C60,15.3431458 58.6568542,14 57,14 Z M53,12 C53.5522847,12 54,12.4477153 54,13 L54,51 C54,51.5522847 53.5522847,52 53,52 L33,52 C32.2957468,52.0041446 31.6053465,52.1960759 31,52.556 L31,33.9 C33.3264168,33.4215673 34.9970017,31.3751008 35,29 L35,28.816 C35.945892,28.4887652 36.6635411,27.7073977 36.9093268,26.7371484 C37.1551125,25.7668991 36.8960187,24.7381009 36.22,24 C36.8960187,23.2618991 37.1551125,22.2331009 36.9093268,21.2628516 C36.6635411,20.2926023 35.945892,19.5112348 35,19.184 L35,17.011 C35.0303415,15.9484312 35.4327369,14.9302327 36.137,14.134 C36.6726738,13.4940062 37.1045947,12.7739131 37.417,12 L53,12 Z M25,22 C25,21.4477153 25.4477153,21 26,21 L34,21 C34.5522847,21 35,21.4477153 35,22 C35,22.5522847 34.5522847,23 34,23 L26,23 C25.4477153,23 25,22.5522847 25,22 Z M34,25 C34.5522847,25 35,25.4477153 35,26 C35,26.5522847 34.5522847,27 34,27 L26,27 C25.4477153,27 25,26.5522847 25,26 C25,25.4477153 25.4477153,25 26,25 L34,25 Z M33,29 C33,30.6568542 31.6568542,32 30,32 C28.3431458,32 27,30.6568542 27,29 L33,29 Z M26,4.524 C27.2779654,3.37226831 28.9923757,2.83095237 30.7,3.04 C33.4832761,3.39188233 35.6626426,5.60556626 35.971,8.394 C36.1359676,10.0033688 35.6412761,11.6108456 34.6,12.849 C33.5889907,14.0020976 33.0217606,15.4776049 33,17.011 L33,19 L27,19 L27,17.2 C26.9720909,15.5729608 26.3808373,14.0059445 25.327,12.766 C24.462181,11.7020569 23.9931911,10.3710728 24,9 C24.000553,7.29163169 24.7277595,5.66414333 26,4.524 Z M6,13 C6,12.4477153 6.44771525,12 7,12 L22.591,12 C22.8822934,12.7299327 23.2806624,13.4124176 23.773,14.025 C24.531494,14.9128049 24.9643429,16.03285 25,17.2 L25,19.183 C24.053731,19.5101028 23.335756,20.2916696 23.0899414,21.2622346 C22.8441267,22.2327995 23.1035139,23.2619026 23.78,24 C23.1039813,24.7381009 22.8448875,25.7668991 23.0906732,26.7371484 C23.3364589,27.7073977 24.054108,28.4887652 25,28.816 L25,29 C25.0029983,31.3751008 26.6735832,33.4215673 29,33.9 L29,52.556 C28.3946535,52.1960759 27.7042532,52.0041446 27,52 L7,52 C6.44771525,52 6,51.5522847 6,51 L6,13 Z M58,55 C58,55.5522847 57.5522847,56 57,56 L35.188,56 C34.1198049,56.0035913 33.1340946,56.5749072 32.6,57.5 C32.0646072,58.4300833 31.073173,59.003337 30,59.003337 C28.926827,59.003337 27.9353928,58.4300833 27.4,57.5 C26.8659054,56.5749072 25.8801951,56.0035913 24.812,56 L3,56 C2.44771525,56 2,55.5522847 2,55 L2,17 C2,16.4477153 2.44771525,16 3,16 L4,16 L4,51 C4,52.6568542 5.34314575,54 7,54 L27,54 C28.1045695,54 29,54.8954305 29,56 C29,56.5522847 29.4477153,57 30,57 C30.5522847,57 31,56.5522847 31,56 C31,54.8954305 31.8954305,54 33,54 L53,54 C54.6568542,54 56,52.6568542 56,51 L56,16 L57,16 C57.5522847,16 58,16.4477153 58,17 L58,55 Z"></path>
                <path d="M30,7 C30.0852478,7.0000952 30.1704089,7.00543864 30.255,7.016 C31.1624401,7.14859797 31.8709538,7.86855247 31.989,8.778 C32.0489802,9.31803922 31.8873208,9.85930935 31.541,10.278 C31.1858809,10.7013263 31.2411737,11.3323809 31.6645,11.6875 C32.0878263,12.0426191 32.7188809,11.9873263 33.074,11.564 C34.0138344,10.4384982 34.2625226,8.88898024 33.7220897,7.5259046 C33.1816568,6.16282896 31.9387372,5.20470433 30.483,5.029 C30.3226925,5.01004399 30.161424,5.00036121 30,5 C29.4477153,5 29,5.44771525 29,6 C29,6.55228475 29.4477153,7 30,7 L30,7 Z"></path>
                <path d="M11.293,23.707 C11.6853789,24.0859722 12.3090848,24.0805524 12.6948186,23.6948186 C13.0805524,23.3090848 13.0859722,22.6853789 12.707,22.293 L10.414,20 L12.707,17.707 C13.0859722,17.3146211 13.0805524,16.6909152 12.6948186,16.3051814 C12.3090848,15.9194476 11.6853789,15.9140278 11.293,16.293 L8.293,19.293 C7.90261806,19.6834999 7.90261806,20.3165001 8.293,20.707 L11.293,23.707 Z"></path>
                <path d="M15.553,23.9 C15.7903497,24.0186659 16.0651326,24.0381283 16.3168386,23.9541012 C16.5685446,23.8700742 16.7765321,23.6894485 16.895,23.452 L19.895,17.452 C20.0546977,17.1322473 20.0316785,16.7515859 19.8346134,16.4534073 C19.6375483,16.1552286 19.2963762,15.9848332 18.9396134,16.0064073 C18.5828505,16.0279813 18.2646977,16.2382473 18.105,16.558 L15.105,22.558 C14.9863341,22.7953497 14.9668717,23.0701326 15.0508988,23.3218386 C15.1349258,23.5735446 15.3155515,23.7815321 15.553,23.9 Z"></path>
                <path d="M37.707,40.293 C37.3165001,39.9026181 36.6834999,39.9026181 36.293,40.293 L33.293,43.293 C32.9026181,43.6834999 32.9026181,44.3165001 33.293,44.707 L36.293,47.707 C36.6853789,48.0859722 37.3090848,48.0805524 37.6948186,47.6948186 C38.0805524,47.3090848 38.0859722,46.6853789 37.707,46.293 L35.414,44 L37.707,41.707 C38.0973819,41.3165001 38.0973819,40.6834999 37.707,40.293 Z"></path>
                <path d="M47.293,40.293 C46.9026181,40.6834999 46.9026181,41.3165001 47.293,41.707 L49.586,44 L47.293,46.293 C47.0330434,46.5440745 46.9287874,46.9158779 47.0203028,47.2655073 C47.1118183,47.6151368 47.3848632,47.8881817 47.7344927,47.9796972 C48.0841221,48.0712126 48.4559255,47.9669566 48.707,47.707 L51.707,44.707 C52.0973819,44.3165001 52.0973819,43.6834999 51.707,43.293 L48.707,40.293 C48.3165001,39.9026181 47.6834999,39.9026181 47.293,40.293 Z"></path>
                <path d="M44.447,40.1 C44.2096503,39.9813341 43.9348674,39.9618717 43.6831614,40.0458988 C43.4314554,40.1299258 43.2234679,40.3105515 43.105,40.548 L40.105,46.548 C39.8581287,47.0422948 40.0587052,47.6431287 40.553,47.89 C41.0472949,48.1368712 41.6481287,47.9362948 41.895,47.442 L44.895,41.442 C45.0136659,41.2046503 45.0331283,40.9298674 44.9491012,40.6781614 C44.8650742,40.4264554 44.6844485,40.2184679 44.447,40.1 Z"></path>
                <path d="M9,29 L20,29 C20.5522847,29 21,28.5522847 21,28 C21,27.4477153 20.5522847,27 20,27 L9,27 C8.44771525,27 8,27.4477153 8,28 C8,28.5522847 8.44771525,29 9,29 Z"></path>
                <path d="M9,33 L21,33 C21.5522847,33 22,32.5522847 22,32 C22,31.4477153 21.5522847,31 21,31 L9,31 C8.44771525,31 8,31.4477153 8,32 C8,32.5522847 8.44771525,33 9,33 Z"></path>
                <path d="M9,49 L21,49 C21.5522847,49 22,48.5522847 22,48 C22,47.4477153 21.5522847,47 21,47 L9,47 C8.44771525,47 8,47.4477153 8,48 C8,48.5522847 8.44771525,49 9,49 Z"></path>
                <path d="M9,37 L17,37 C17.5522847,37 18,36.5522847 18,36 C18,35.4477153 17.5522847,35 17,35 L9,35 C8.44771525,35 8,35.4477153 8,36 C8,36.5522847 8.44771525,37 9,37 Z"></path>
                <path d="M20,36 C20,36.5522847 20.4477153,37 21,37 L24,37 C24.5522847,37 25,36.5522847 25,36 C25,35.4477153 24.5522847,35 24,35 L21,35 C20.4477153,35 20,35.4477153 20,36 Z"></path>
                <path d="M9,41 L19,41 C19.5522847,41 20,40.5522847 20,40 C20,39.4477153 19.5522847,39 19,39 L9,39 C8.44771525,39 8,39.4477153 8,40 C8,40.5522847 8.44771525,41 9,41 Z"></path>
                <path d="M24,39 L23,39 C22.4477153,39 22,39.4477153 22,40 C22,40.5522847 22.4477153,41 23,41 L24,41 C24.5522847,41 25,40.5522847 25,40 C25,39.4477153 24.5522847,39 24,39 Z"></path>
                <path d="M24,43 L14,43 C13.4477153,43 13,43.4477153 13,44 C13,44.5522847 13.4477153,45 14,45 L24,45 C24.5522847,45 25,44.5522847 25,44 C25,43.4477153 24.5522847,43 24,43 Z"></path>
                <path d="M9,45 L10,45 C10.5522847,45 11,44.5522847 11,44 C11,43.4477153 10.5522847,43 10,43 L9,43 C8.44771525,43 8,43.4477153 8,44 C8,44.5522847 8.44771525,45 9,45 Z"></path>
                <path d="M40,17 L49,17 C49.5522847,17 50,16.5522847 50,16 C50,15.4477153 49.5522847,15 49,15 L40,15 C39.4477153,15 39,15.4477153 39,16 C39,16.5522847 39.4477153,17 40,17 Z"></path>
                <path d="M40,21 L49,21 C49.5522847,21 50,20.5522847 50,20 C50,19.4477153 49.5522847,19 49,19 L40,19 C39.4477153,19 39,19.4477153 39,20 C39,20.5522847 39.4477153,21 40,21 Z"></path>
                <path d="M34,37 L49,37 C49.5522847,37 50,36.5522847 50,36 C50,35.4477153 49.5522847,35 49,35 L34,35 C33.4477153,35 33,35.4477153 33,36 C33,36.5522847 33.4477153,37 34,37 Z"></path>
                <path d="M40,25 L49,25 C49.5522847,25 50,24.5522847 50,24 C50,23.4477153 49.5522847,23 49,23 L40,23 C39.4477153,23 39,23.4477153 39,24 C39,24.5522847 39.4477153,25 40,25 Z"></path>
                <path d="M40,29 L49,29 C49.5522847,29 50,28.5522847 50,28 C50,27.4477153 49.5522847,27 49,27 L40,27 C39.4477153,27 39,27.4477153 39,28 C39,28.5522847 39.4477153,29 40,29 Z"></path>
                <path d="M38,33 L44,33 C44.5522847,33 45,32.5522847 45,32 C45,31.4477153 44.5522847,31 44,31 L38,31 C37.4477153,31 37,31.4477153 37,32 C37,32.5522847 37.4477153,33 38,33 Z"></path>
                <path d="M49,33 C49.5522847,33 50,32.5522847 50,32 C50,31.4477153 49.5522847,31 49,31 L48,31 C47.4477153,31 47,31.4477153 47,32 C47,32.5522847 47.4477153,33 48,33 L49,33 Z"></path>
            </g>
        </g>
    </g>
</svg>